# xmcd CD database file
#
# Track frame offsets:
#	150
#	11268
#	23096
#	34903
#	47811
#	59947
#	75116
#	87310
#	100810
#	112202
#	124802
#	137258
#	152545
#	166287
#	178585
#	192005
#	205112
#	219657
#	234185
#	246740
#	254314
#	263716
#	277921
#	291268
#
# Disc length: 4078 seconds
#
# Revision: 0
# Processed by: cddbd v1.5.2PL0 Copyright (c) Steve Scherf et al.
# Submitted via: CDex 1.70beta2
#
DISCID=4b0fec18
DTITLE=Jack Teagarden - Jazz Roads CD293 - Big Bands
DYEAR=2006
DGENRE=Jazz
TTITLE0=Persian Rug
TTITLE1=The Sheik Of Araby
TTITLE2=Class Will Tell
TTITLE3=If It's Good (Then I Want It)
TTITLE4=I Gotta Right To Sing The Blues
TTITLE5=Octeroon
TTITLE6=The Little Man Who Wasn't Here
TTITLE7=Puttin' And Takin'
TTITLE8=I Swung The Election
TTITLE9=Blues To The Dole
TTITLE10=Aunt Hagar's Blues
TTITLE11=Peg O' My Heart
TTITLE12=Muddy River
TTITLE13=Wolverine Blues (1)
TTITLE14=Red Wing
TTITLE15=United We Swing
TTITLE16=Beale Street Blues
TTITLE17=Somewhere A Voice Is Calling
TTITLE18=Swingin' On The Teagarden Gate
TTITLE19=On Revival Day
TTITLE20=Wolverine Blues (2)
TTITLE21=If I Could Be With You One Hour Tonight
TTITLE22=My Melancholy Baby
TTITLE23=The Blues
EXTD=YEAR: 2006
EXTT0=
EXTT1=
EXTT2=
EXTT3=
EXTT4=
EXTT5=
EXTT6=
EXTT7=
EXTT8=
EXTT9=
EXTT10=
EXTT11=
EXTT12=
EXTT13=
EXTT14=
EXTT15=
EXTT16=
EXTT17=
EXTT18=
EXTT19=
EXTT20=
EXTT21=
EXTT22=
EXTT23=
PLAYORDER=
